<?xml version="1.0" ?><!DOCTYPE svg  PUBLIC '-//W3C//DTD SVG 1.1//EN'  'http://www.w3.org/Graphics/SVG/1.1/DTD/svg11.dtd'><svg height="512px" style="enable-background:new 0 0 512 512;" version="1.1" viewBox="0 0 512 512" width="512px" xml:space="preserve" xmlns="http://www.w3.org/2000/svg" xmlns:xlink="http://www.w3.org/1999/xlink"><g id="_x31_50_x2C__Sensor_x2C__body_x2C__Data_x2C__Human_x2C__Science"><g><path d="M288.389,41.811c-8.24-8.273-19.688-13.372-32.291-13.372    c-12.603,0-24.054,5.099-32.294,13.372c-8.275,8.242-13.406,19.691-13.406,32.294c0,12.635,5.131,24.052,13.375,32.325    c8.271,8.242,19.688,13.373,32.326,13.373c12.504,0,23.858-5.035,32.133-13.18l0.157-0.193    c8.275-8.273,13.406-19.69,13.406-32.325C301.795,61.502,296.664,50.086,288.389,41.811 M473.076,287.941    c0,3.046-1.252,5.771-3.207,7.76l-0.319,0.289c-1.958,1.827-4.587,2.95-7.476,2.95c-3.046,0-5.801-1.251-7.791-3.239l-0.288-0.289    c-0.93-1.025-1.702-2.213-2.214-3.527h-16.449c-1.478,0-2.759-0.834-3.433-2.02l-12.185-17.606l-25.592,36.976    c-0.771,1.123-1.989,1.699-3.238,1.699l-20.078,0.032c-2.18,0-3.945-1.764-3.945-3.944s1.766-3.944,3.945-3.944h18.024    l27.645-39.894l0.031-0.064l8.784-12.699c0.674-1.186,1.959-1.988,3.433-1.988h8.563c2.179,0,3.944,1.764,3.944,3.945    c0,2.147-1.766,3.912-3.944,3.912h-6.511l-6.285,9.075l12.891,18.632h14.399c0.579-1.475,1.41-2.758,2.502-3.848    c1.99-1.988,4.745-3.24,7.791-3.24c3.015,0,5.773,1.252,7.764,3.24C471.824,282.137,473.076,284.894,473.076,287.941z     M396.047,253.21c-4.232-6.574-14.463-23.026-14.494-23.09c-1.123-1.827-0.516-4.265,1.344-5.355    c1.86-1.122,4.268-0.513,5.391,1.347c0.031,0.032,8.079,13.053,12.571,20.139l18.727-27.065c0.674-1.187,1.955-1.988,3.433-1.988    h41.688c0.576-1.475,1.411-2.758,2.503-3.849c1.986-1.988,4.744-3.238,7.76-3.238c3.046,0,5.805,1.25,7.791,3.238l0.225,0.257    c1.859,1.956,3.015,4.618,3.015,7.504c0,3.048-1.25,5.805-3.239,7.793c-1.986,1.988-4.745,3.239-7.791,3.239    c-3.016,0-5.773-1.251-7.76-3.239c-1.092-1.091-1.927-2.373-2.503-3.849H425.07l-20.977,30.306l0,0l-0.063,0.096l-0.096,0.161    l-0.066,0.063l-15.168,21.903c-0.769,1.09-1.986,1.7-3.239,1.7h-14.655c-2.18,0-3.945-1.764-3.945-3.944    c0-2.149,1.766-3.912,3.945-3.912h12.605L396.047,253.21z M450.949,353.265c2.18,0,3.944,1.796,3.944,3.944    c0,2.181-1.765,3.945-3.944,3.945h-31.525c-1.475,0-2.759-0.802-3.43-1.989L401.24,337.84h-30.434    c-2.18,0-3.945-1.764-3.945-3.912c0-2.182,1.766-3.945,3.945-3.945h94.093c2.18,0,3.944,1.764,3.944,3.945    c0,2.148-1.765,3.912-3.944,3.912h-54.134l10.68,15.425H450.949z M452.104,408.424c2.019,2.021,3.239,4.778,3.239,7.793    c0,3.046-1.221,5.805-3.207,7.793c-2.021,1.988-4.78,3.206-7.795,3.206s-5.805-1.218-7.791-3.206    c-1.06-1.091-1.923-2.406-2.471-3.849h-5.355c-1.474,0-2.759-0.802-3.433-2.021l-8.784-12.668l-0.031-0.095l-27.645-39.862    h-18.024c-2.18,0-3.945-1.764-3.945-3.944c0-2.182,1.766-3.944,3.945-3.944h20.078c1.249,0,2.467,0.609,3.238,1.699l25.592,36.976    l12.185-17.573c0.674-1.219,1.955-2.021,3.433-2.021h19.688c2.147,0,3.913,1.764,3.913,3.945c0,2.18-1.766,3.943-3.913,3.943    h-17.639l-12.891,18.601l6.285,9.075h3.303c0.513-1.314,1.253-2.501,2.215-3.527l0.256-0.32c1.986-1.988,4.776-3.207,7.791-3.207    S450.114,406.436,452.104,408.424z M400.791,422.245c-4.551,6.959-12.795,19.723-12.826,19.786    c-1.123,1.829-3.527,2.438-5.388,1.347c-1.86-1.122-2.471-3.526-1.348-5.387c0.032-0.063,10.486-16.194,14.786-22.641    l-12.604-18.184h-12.605c-2.18,0-3.945-1.764-3.945-3.944s1.766-3.944,3.945-3.944h14.655c1.253,0.032,2.471,0.609,3.239,1.732    l15.168,21.902l0.066,0.064l0.096,0.16l0.063,0.064v0.032l20.977,30.273h39.636c0.513-1.315,1.281-2.534,2.212-3.528l0.291-0.32    c1.986-1.989,4.744-3.208,7.76-3.208c3.046,0,5.805,1.219,7.791,3.208c1.989,1.988,3.239,4.746,3.239,7.792    c0,2.887-1.123,5.516-2.948,7.473l-0.291,0.32c-1.986,1.989-4.745,3.207-7.791,3.207c-3.016,0-5.773-1.218-7.76-3.207    c-1.092-1.09-1.927-2.405-2.503-3.849h-41.688c-1.478,0-2.759-0.802-3.433-2.02L400.791,422.245z M42.135,295.701    c-1.99-1.988-3.208-4.714-3.208-7.76c0-3.048,1.218-5.805,3.208-7.793c2.018-1.988,4.776-3.24,7.791-3.24    c3.046,0,5.805,1.252,7.791,3.24c1.06,1.09,1.927,2.373,2.502,3.848h14.399l12.89-18.632l-6.286-9.075h-6.506    c-2.183,0-3.945-1.765-3.945-3.912c0-2.182,1.762-3.945,3.945-3.945h8.56c1.442,0,2.758,0.803,3.432,1.988l8.756,12.699    l0.063,0.064l27.612,39.894h18.021c2.179,0,3.945,1.764,3.945,3.944s-1.766,3.944-3.945,3.944h-20.043    c-1.252-0.032-2.47-0.608-3.239-1.731l-25.591-36.976l-12.185,17.606c-0.674,1.186-1.99,2.02-3.464,2.02H60.188    c-0.513,1.314-1.25,2.502-2.211,3.527l-0.26,0.289c-1.986,1.988-4.776,3.239-7.791,3.239    C46.879,298.94,44.121,297.689,42.135,295.701z M111.146,246.25c4.457-7.086,12.54-20.106,12.571-20.139    c1.123-1.859,3.527-2.469,5.387-1.347c1.86,1.091,2.471,3.528,1.348,5.355c-0.032,0.063-10.293,16.516-14.494,23.09l12.603,18.216    h12.603c2.179,0,3.945,1.763,3.945,3.912c0,2.181-1.766,3.944-3.945,3.944h-14.656c-1.218,0-2.471-0.61-3.208-1.7l-15.168-21.903    l-0.063-0.063l-0.13-0.161l-0.031-0.096l0,0l-20.973-30.306H47.266c-0.548,1.476-1.411,2.791-2.471,3.849    c-2.021,1.988-4.745,3.239-7.76,3.239c-3.046,0-5.836-1.251-7.794-3.239c-2.021-1.988-3.239-4.745-3.239-7.793    c0-2.886,1.123-5.548,2.983-7.504l0.256-0.257c1.958-1.988,4.749-3.238,7.794-3.238c3.015,0,5.77,1.25,7.76,3.238    c1.06,1.091,1.923,2.374,2.471,3.849h41.689c1.474,0,2.79,0.802,3.464,1.988L111.146,246.25z M61.022,361.154    c-2.151,0-3.944-1.765-3.944-3.945c0-2.148,1.793-3.944,3.944-3.944h29.501l10.68-15.425H47.072c-2.183,0-3.944-1.764-3.944-3.912    c0-2.182,1.762-3.945,3.944-3.945h94.09c2.179,0,3.945,1.764,3.945,3.945c0,2.148-1.766,3.912-3.945,3.912h-30.403l-14.75,21.325    c-0.674,1.188-1.955,1.989-3.432,1.989H61.022z M56.629,416.217c0-3.015,1.25-5.772,3.239-7.762    c1.986-2.02,4.745-3.238,7.759-3.238c3.046,0,5.805,1.219,7.795,3.207l0.288,0.32c0.93,1.026,1.699,2.213,2.211,3.527h3.302    l6.286-9.075l-12.89-18.601H56.98c-2.18,0-3.945-1.764-3.945-3.943c0-2.182,1.765-3.945,3.945-3.945h19.66    c1.474,0,2.79,0.803,3.464,2.021l12.185,17.573l25.591-36.976c0.769-1.09,1.987-1.699,3.239-1.699h20.043    c2.179,0,3.945,1.763,3.945,3.944c0,2.181-1.766,3.944-3.945,3.944h-18.021l-27.612,39.862l-0.063,0.095l-8.756,12.668    c-0.674,1.219-1.99,2.021-3.432,2.021h-5.355c-0.544,1.442-1.411,2.758-2.499,3.849c-1.99,1.988-4.749,3.206-7.795,3.206    c-3.015,0-5.773-1.218-7.759-3.206C57.878,422.021,56.629,419.263,56.629,416.217z M115.988,415.351    c4.264,6.446,14.75,22.577,14.782,22.641c1.091,1.86,0.481,4.265-1.344,5.387c-1.86,1.091-4.299,0.482-5.391-1.347    c-0.031-0.063-8.272-12.827-12.859-19.786l-18.758,27.131c-0.674,1.218-1.99,2.02-3.464,2.02H47.266    c-0.548,1.443-1.411,2.759-2.471,3.849c-1.99,1.989-4.745,3.207-7.791,3.207c-3.015,0-5.805-1.218-7.795-3.207l-0.256-0.32    c-1.828-1.957-2.951-4.586-2.951-7.473c0-3.046,1.218-5.804,3.208-7.792c1.99-1.989,4.78-3.208,7.795-3.208    c3.046,0,5.801,1.219,7.791,3.208l0.256,0.32c0.962,0.994,1.734,2.213,2.215,3.528h39.667l20.973-30.273v-0.032l0.031-0.064    l0.13-0.16l0.063-0.064l15.168-21.902c0.737-1.123,1.99-1.7,3.208-1.7l14.656-0.032c2.179,0,3.945,1.764,3.945,3.944    s-1.766,3.944-3.945,3.944H128.56L115.988,415.351z M195.422,66.504c1.509,0,3.046-0.962,3.559-2.212    c1.316-2.63-0.705-5.677-3.559-5.677h-7.857c-1.506,0-3.046,0.963-3.559,2.213c-1.316,2.629,0.705,5.676,3.559,5.676H195.422z     M321.52,66.504c1.473,0,3.045-0.962,3.526-2.212c1.313-2.63-0.674-5.677-3.526-5.677h-7.891c-1.477,0-3.046,0.963-3.526,2.213    c-1.315,2.629,0.674,5.676,3.526,5.676H321.52z M353.041,66.504c1.475,0,3.047-0.962,3.527-2.212    c1.316-2.63-0.674-5.677-3.527-5.677h-7.889c-1.506,0-3.047,0.963-3.559,2.213c-1.285,2.629,0.705,5.676,3.559,5.676H353.041z     M156.042,58.615c-1.509,0-3.046,0.963-3.559,2.213c-1.316,2.629,0.705,5.676,3.559,5.676h7.889c1.474,0,3.015-0.962,3.527-2.212    c1.316-2.63-0.674-5.677-3.527-5.677H156.042z M195.422,89.594c1.509,0,3.046-0.962,3.559-2.213    c1.316-2.629-0.705-5.676-3.559-5.676h-7.857c-1.506,0-3.046,0.994-3.559,2.213c-1.316,2.629,0.705,5.676,3.559,5.676H195.422z     M321.52,89.594c1.473,0,3.045-0.962,3.526-2.213c1.313-2.629-0.674-5.676-3.526-5.676h-7.891c-1.477,0-3.046,0.994-3.526,2.213    c-1.315,2.629,0.674,5.676,3.526,5.676H321.52z M353.041,89.594c1.475,0,3.047-0.962,3.527-2.213    c1.316-2.629-0.674-5.676-3.527-5.676h-7.889c-1.506,0-3.047,0.994-3.559,2.213c-1.285,2.629,0.705,5.676,3.559,5.676H353.041z     M156.042,81.705c-1.509,0-3.046,0.994-3.559,2.213c-1.316,2.629,0.705,5.676,3.559,5.676h7.889c1.474,0,3.015-0.962,3.527-2.213    c1.316-2.629-0.674-5.676-3.527-5.676H156.042z M175.187,296.15v-75.715c0-2.148,1.797-3.945,3.945-3.945    c2.18,0,3.945,1.797,3.945,3.945c0,87.709,0,175.417,0,263.126h44.799V384.02v-41.754v-0.097v-3.815h7.889h40.665h7.857v3.815    v0.097v41.754v99.542h44.8c0-87.709,0-175.417,0-263.126c0-2.148,1.797-3.945,3.944-3.945c2.183,0,3.944,1.797,3.944,3.945v75.715    h23.443V172.589l-69.204-29.761l-70.586-0.256l-68.85,29.984V296.15H175.187z" style="fill-rule:evenodd;clip-rule:evenodd;"/></g></g><g id="Layer_1"/></svg>