<!-- Generator: Adobe Illustrator 21.1.0, SVG Export Plug-In  -->
<svg version="1.1" xmlns="http://www.w3.org/2000/svg" xmlns:xlink="http://www.w3.org/1999/xlink" xmlns:a="http://ns.adobe.com/AdobeSVGViewerExtensions/3.0/" x="0px" y="0px" width="612px" height="116.83px" viewBox="0 0 612 116.83" style="enable-background:new 0 0 612 116.83;" xml:space="preserve">
<style type="text/css">
	.st0{fill:#656668;}
	.st1{fill:#AF253D;}
</style>
<defs>
</defs>
<g>
	<g>
		<path d="M310.259,0.181h12.936c3.169,0,5.403,0.793,6.881,2.269c1.009,1.009,1.621,2.343,1.621,4.073v0.07    c0,2.919-1.656,4.649-3.89,5.622c3.062,1.009,5.008,2.739,5.008,6.162v0.072c0,4.323-3.532,6.953-9.55,6.953h-13.006V0.181z     M321.465,10.233c2.126,0,3.314-0.721,3.314-2.197V7.965c0-1.371-1.08-2.162-3.169-2.162h-4.542v4.431H321.465z M322.473,19.782    c2.126,0,3.353-0.828,3.353-2.306v-0.072c0-1.369-1.082-2.269-3.423-2.269h-5.334v4.647H322.473z"/>
		<path d="M339.044,0.181h20.286v5.946h-13.368v3.819h12.108v5.512h-12.108v3.999h13.549v5.946h-20.467V0.181z"/>
		<path d="M366.313,0.181h11.927c3.856,0,6.522,1.009,8.216,2.738c1.476,1.441,2.234,3.388,2.234,5.873v0.072    c0,3.854-2.054,6.414-5.19,7.746l6.018,8.793h-8.07l-5.081-7.639h-0.072h-2.991v7.639h-6.99V0.181z M377.915,12.288    c2.378,0,3.747-1.152,3.747-2.991v-0.07c0-1.982-1.441-2.991-3.782-2.991h-4.577v6.053H377.915z"/>
		<path d="M395.102,0.181h6.99v10.234l8.683-10.234h8.289l-9.548,10.845l9.872,14.377h-8.396l-6.342-9.369l-2.558,2.847v6.522h-6.99    V0.181z"/>
		<path d="M424.175,0.181h7.387l6.016,9.765l6.018-9.765h7.387v25.222h-6.953V10.919l-6.451,9.872h-0.143l-6.414-9.8v14.412h-6.846    V0.181z"/>
		<path d="M466.72,0.002h6.737l10.737,25.401H476.7l-1.837-4.505h-9.728l-1.802,4.505h-7.352L466.72,0.002z M472.846,15.459    l-2.812-7.17l-2.847,7.17H472.846z"/>
		<path d="M489.194,0.181h6.522l10.378,13.33V0.181h6.918v25.222h-6.125l-10.774-13.836v13.836h-6.918V0.181z"/>
		<path d="M310.259,37.354h6.99v10.232l8.683-10.232h8.287l-9.548,10.845l9.872,14.377h-8.394l-6.342-9.369l-2.558,2.847v6.522    h-6.99V37.354z"/>
		<path d="M339.33,37.354h6.99V56.45h12.214v6.125H339.33V37.354z"/>
		<path d="M363.779,37.354h20.286v5.946h-13.368v3.819h12.108v5.512h-12.108v3.999h13.549v5.946h-20.467V37.354z"/>
		<path d="M391.142,37.354h7.025v25.222h-7.025V37.354z"/>
		<path d="M405.675,37.354h6.522l10.378,13.33v-13.33h6.918v25.222h-6.125l-10.774-13.836v13.836h-6.918V37.354z"/>
		<path d="M447.993,50.036v-0.072c0-7.35,5.659-13.116,13.297-13.116c5.151,0,8.467,2.163,10.7,5.262l-5.26,4.071    c-1.441-1.802-3.099-2.954-5.512-2.954c-3.532,0-6.018,2.989-6.018,6.666v0.07c0,3.784,2.486,6.738,6.018,6.738    c2.63,0,4.179-1.224,5.692-3.062l5.262,3.747c-2.378,3.278-5.586,5.692-11.171,5.692    C453.794,63.079,447.993,57.567,447.993,50.036z"/>
		<path d="M477.734,37.354h20.286v5.946h-13.368v3.819h12.108v5.512h-12.108v3.999h13.549v5.946h-20.467V37.354z"/>
		<path d="M505.002,37.354h6.522l10.378,13.33v-13.33h6.918v25.222h-6.125L511.92,48.739v13.836h-6.918V37.354z"/>
		<path d="M541.688,43.479h-7.566v-6.125h22.123v6.125h-7.566v19.096h-6.99V43.479z"/>
		<path d="M561.525,37.354h20.287v5.946h-13.369v3.819h12.108v5.512h-12.108v3.999h13.549v5.946h-20.467V37.354z"/>
		<path d="M588.795,37.354h11.927c3.856,0,6.522,1.008,8.215,2.738c1.478,1.441,2.234,3.388,2.234,5.873v0.072    c0,3.856-2.052,6.414-5.188,7.746L612,62.576h-8.072l-5.079-7.639h-0.072h-2.991v7.639h-6.99V37.354z M600.398,49.46    c2.378,0,3.747-1.152,3.747-2.991v-0.07c0-1.982-1.441-2.991-3.782-2.991h-4.577v6.053H600.398z"/>
	</g>
</g>
<g>
	<g>
		<path class="st0" d="M313.154,82.05v2.889h6.475v2.714h-6.475v5.255h-2.986V79.336h10.334v2.714H313.154z"/>
		<path class="st0" d="M330.654,93.141c-4.19,0-7.194-3.122-7.194-6.98v-0.039c0-3.859,3.043-7.02,7.231-7.02    c4.19,0,7.194,3.122,7.194,6.981v0.039C337.885,89.98,334.842,93.141,330.654,93.141z M334.764,86.122    c0-2.327-1.706-4.266-4.11-4.266c-2.406,0-4.073,1.9-4.073,4.227v0.039c0,2.326,1.706,4.266,4.11,4.266    c2.406,0,4.073-1.9,4.073-4.227V86.122z"/>
		<path class="st0" d="M350.341,92.909l-2.908-4.343h-2.347v4.343h-2.986V79.336h6.205c3.199,0,5.118,1.686,5.118,4.479v0.039    c0,2.191-1.182,3.568-2.908,4.208l3.315,4.847H350.341z M350.399,83.97c0-1.28-0.891-1.939-2.345-1.939h-2.967v3.897h3.025    c1.454,0,2.287-0.775,2.287-1.919V83.97z"/>
		<path class="st0" d="M364.707,92.909V79.336h2.988v13.573H364.707z"/>
		<path class="st0" d="M382.179,92.909l-6.574-8.629v8.629h-2.947V79.336h2.754l6.359,8.357v-8.357h2.949v13.573H382.179z"/>
		<path class="st0" d="M395.474,82.089v10.82h-2.986v-10.82h-4.13v-2.753h11.247v2.753H395.474z"/>
		<path class="st0" d="M403.245,92.909V79.336h10.237v2.656h-7.272v2.753h6.399v2.657h-6.399v2.851h7.368v2.656H403.245z"/>
		<path class="st0" d="M426.229,92.909l-2.908-4.343h-2.347v4.343h-2.986V79.336h6.205c3.199,0,5.118,1.686,5.118,4.479v0.039    c0,2.191-1.182,3.568-2.908,4.208l3.315,4.847H426.229z M426.286,83.97c0-1.28-0.891-1.939-2.345-1.939h-2.967v3.897h3.025    c1.454,0,2.288-0.775,2.288-1.919V83.97z"/>
		<path class="st0" d="M443.171,92.909l-6.574-8.629v8.629h-2.947V79.336h2.752l6.361,8.357v-8.357h2.947v13.573H443.171z"/>
		<path class="st0" d="M450.639,92.909V79.336h10.237v2.656h-7.272v2.753h6.399v2.657h-6.399v2.851h7.368v2.656H450.639z"/>
		<path class="st0" d="M471.373,82.089v10.82h-2.986v-10.82h-4.13v-2.753h11.247v2.753H471.373z"/>
		<path class="st0" d="M495.376,93.18l-1.571-1.59c-1.106,0.911-2.404,1.512-3.975,1.512c-2.599,0-4.556-1.512-4.556-3.936    c0-1.745,0.93-2.966,2.636-3.742c-0.658-0.95-0.95-1.784-0.95-2.734c0-1.881,1.495-3.588,4.112-3.588    c2.308,0,3.819,1.494,3.819,3.432c0,1.843-1.163,2.909-2.851,3.568l1.804,1.803c0.446-0.698,0.891-1.493,1.319-2.326l2.191,1.202    c-0.524,0.95-1.106,1.958-1.784,2.869l1.997,1.998L495.376,93.18z M489.54,87.246c-0.893,0.466-1.261,1.125-1.261,1.803    c0,0.97,0.796,1.61,1.9,1.61c0.68,0,1.339-0.291,1.96-0.775L489.54,87.246z M491.012,81.429c-0.795,0-1.317,0.562-1.317,1.396    c0,0.62,0.232,1.067,0.795,1.707c1.182-0.446,1.802-0.95,1.802-1.823C492.292,81.895,491.77,81.429,491.012,81.429z"/>
		<path class="st0" d="M513.021,93.102c-2.056,0-4.13-0.717-5.759-2.172l1.763-2.113c1.222,1.009,2.502,1.648,4.053,1.648    c1.222,0,1.96-0.485,1.96-1.28v-0.039c0-0.756-0.467-1.144-2.734-1.725c-2.736-0.698-4.499-1.455-4.499-4.15v-0.039    c0-2.463,1.978-4.092,4.751-4.092c1.976,0,3.664,0.62,5.04,1.726l-1.55,2.25c-1.202-0.834-2.386-1.338-3.529-1.338    c-1.145,0-1.747,0.523-1.747,1.183V83c0,0.892,0.583,1.183,2.928,1.784c2.754,0.718,4.305,1.707,4.305,4.072v0.039    C518.003,91.59,515.949,93.102,513.021,93.102z"/>
		<path class="st0" d="M528.576,93.141c-4.19,0-7.194-3.122-7.194-6.98v-0.039c0-3.859,3.043-7.02,7.231-7.02    c4.19,0,7.196,3.122,7.196,6.981v0.039C535.809,89.98,532.763,93.141,528.576,93.141z M532.686,86.122    c0-2.327-1.706-4.266-4.11-4.266c-2.406,0-4.073,1.9-4.073,4.227v0.039c0,2.326,1.706,4.266,4.11,4.266    c2.406,0,4.073-1.9,4.073-4.227V86.122z"/>
		<path class="st0" d="M546.296,93.141c-3.993,0-6.961-3.083-6.961-6.98v-0.039c0-3.859,2.908-7.02,7.077-7.02    c2.56,0,4.092,0.854,5.351,2.095l-1.9,2.191c-1.047-0.95-2.113-1.532-3.471-1.532c-2.288,0-3.936,1.9-3.936,4.227v0.039    c0,2.326,1.61,4.266,3.936,4.266c1.552,0,2.502-0.62,3.569-1.59l1.9,1.92C550.465,92.21,548.913,93.141,546.296,93.141z"/>
		<path class="st0" d="M555.716,92.909V79.336h2.986v13.573H555.716z"/>
		<path class="st0" d="M563.666,92.909V79.336h10.239v2.656h-7.272v2.753h6.399v2.657h-6.399v2.851h7.368v2.656H563.666z"/>
		<path class="st0" d="M584.4,82.089v10.82h-2.986v-10.82h-4.13v-2.753h11.247v2.753H584.4z"/>
		<path class="st0" d="M599.653,87.498v5.41h-2.986v-5.352l-5.216-8.221h3.49l3.238,5.448l3.297-5.448h3.393L599.653,87.498z"/>
		<path class="st0" d="M320.27,116.617l-1.241-3.044h-5.74l-1.241,3.044h-3.043l5.816-13.67h2.754l5.816,13.67H320.27z     M316.158,106.534l-1.802,4.402h3.606L316.158,106.534z"/>
		<path class="st0" d="M331.545,105.797v10.82h-2.986v-10.82h-4.13v-2.753h11.247v2.753H331.545z"/>
		<path class="st0" d="M354.909,116.617v-5.448h-5.507v5.448h-2.986v-13.573h2.986v5.371h5.507v-5.371h2.986v13.573H354.909z"/>
		<path class="st0" d="M372.699,116.617l-1.241-3.044h-5.738l-1.241,3.044h-3.045l5.818-13.67h2.752l5.818,13.67H372.699z     M368.589,106.534l-1.804,4.402h3.608L368.589,106.534z"/>
		<path class="st0" d="M387.602,116.617l-2.908-4.343h-2.347v4.343h-2.986v-13.573h6.205c3.199,0,5.12,1.686,5.12,4.479v0.039    c0,2.191-1.184,3.568-2.908,4.208l3.315,4.847H387.602z M387.662,107.678c0-1.28-0.893-1.939-2.347-1.939h-2.967v3.897h3.025    c1.456,0,2.289-0.775,2.289-1.919V107.678z"/>
		<path class="st0" d="M401.459,116.714h-2.638l-5.486-13.67h3.295l3.549,9.559l3.549-9.559h3.219L401.459,116.714z"/>
		<path class="st0" d="M419.309,116.617l-1.241-3.044h-5.74l-1.241,3.044h-3.043l5.816-13.67h2.754l5.816,13.67H419.309z     M415.197,106.534l-1.802,4.402h3.606L415.197,106.534z"/>
		<path class="st0" d="M434.219,116.617l-2.908-4.343h-2.347v4.343h-2.986v-13.573h6.205c3.199,0,5.118,1.686,5.118,4.479v0.039    c0,2.191-1.182,3.568-2.908,4.208l3.315,4.847H434.219z M434.277,107.678c0-1.28-0.891-1.939-2.345-1.939h-2.967v3.897h3.025    c1.454,0,2.288-0.775,2.288-1.919V107.678z"/>
		<path class="st0" d="M446.935,116.617h-5.294v-13.573h5.294c4.266,0,7.213,2.927,7.213,6.748v0.039    C454.147,113.651,451.201,116.617,446.935,116.617z M451.026,109.831c0-2.404-1.648-4.092-4.092-4.092h-2.308v8.183h2.308    c2.443,0,4.092-1.648,4.092-4.053V109.831z"/>
		<path class="st0" d="M470.919,116.83c-3.647,0-5.877-2.036-5.877-6.03v-7.756h2.988v7.678c0,2.211,1.104,3.354,2.927,3.354    c1.824,0,2.928-1.105,2.928-3.257v-7.776h2.986v7.659C476.871,114.814,474.565,116.83,470.919,116.83z"/>
		<path class="st0" d="M491.164,116.617l-6.574-8.629v8.629h-2.947v-13.573h2.754l6.359,8.357v-8.357h2.949v13.573H491.164z"/>
		<path class="st0" d="M498.699,116.617v-13.573h2.986v13.573H498.699z"/>
		<path class="st0" d="M513.391,116.714h-2.638l-5.486-13.67h3.295l3.549,9.559l3.549-9.559h3.219L513.391,116.714z"/>
		<path class="st0" d="M522.426,116.617v-13.573h10.239v2.656h-7.272v2.753h6.399v2.657h-6.399v2.851h7.368v2.656H522.426z"/>
		<path class="st0" d="M545.412,116.617l-2.91-4.343h-2.345v4.343h-2.988v-13.573h6.205c3.201,0,5.12,1.686,5.12,4.479v0.039    c0,2.191-1.182,3.568-2.908,4.208l3.315,4.847H545.412z M545.47,107.678c0-1.28-0.893-1.939-2.347-1.939h-2.965v3.897h3.025    c1.454,0,2.287-0.775,2.287-1.919V107.678z"/>
		<path class="st0" d="M557.524,116.811c-2.056,0-4.13-0.717-5.759-2.172l1.765-2.113c1.221,1.009,2.5,1.648,4.053,1.648    c1.221,0,1.958-0.485,1.958-1.28v-0.039c0-0.756-0.465-1.144-2.734-1.725c-2.734-0.698-4.499-1.455-4.499-4.15v-0.039    c0-2.463,1.978-4.092,4.751-4.092c1.978,0,3.664,0.62,5.042,1.726l-1.552,2.25c-1.202-0.834-2.384-1.338-3.529-1.338    c-1.145,0-1.745,0.523-1.745,1.183v0.039c0,0.892,0.582,1.183,2.927,1.784c2.754,0.718,4.306,1.707,4.306,4.072v0.039    C562.508,115.298,560.452,116.811,557.524,116.811z"/>
		<path class="st0" d="M566.782,116.617v-13.573h2.986v13.573H566.782z"/>
		<path class="st0" d="M580.566,105.797v10.82h-2.986v-10.82h-4.13v-2.753h11.247v2.753H580.566z"/>
		<path class="st0" d="M595.817,111.207v5.41h-2.986v-5.352l-5.216-8.221h3.49l3.238,5.448l3.297-5.448h3.393L595.817,111.207z"/>
	</g>
</g>
<g>
	<rect x="85.249" class="st1" width="6.814" height="116.593"/>
	<rect x="195.526" class="st1" width="6.816" height="116.593"/>
	<polygon class="st1" points="127.297,116.725 122.478,111.907 155.035,79.349 122.381,46.695 127.2,41.877 164.671,79.349  "/>
	<polygon class="st1" points="270.571,116.725 275.389,111.907 242.833,79.349 275.486,46.695 270.668,41.877 233.197,79.349  "/>
	<polygon class="st1" points="0.637,101.859 15.315,116.538 52.298,79.557 14.681,41.94 0,56.62 22.938,79.557  "/>
</g>
</svg>